<?xml version="1.0" standalone="no"?>
<!DOCTYPE svg PUBLIC "-//W3C//DTD SVG 20010904//EN"
 "http://www.w3.org/TR/2001/REC-SVG-20010904/DTD/svg10.dtd">
<svg version="1.0" xmlns="http://www.w3.org/2000/svg"
 width="405.000000pt" height="383.000000pt" viewBox="0 0 405.000000 383.000000"
 preserveAspectRatio="xMidYMid meet">

<g transform="translate(0.000000,383.000000) scale(0.100000,-0.100000)"
fill="#000000" stroke="none">
<path d="M0 1915 l0 -1915 595 0 c390 0 595 3 595 10 0 6 -12 10 -26 10 -23 0
-25 3 -19 23 11 38 29 207 21 214 -3 4 -28 6 -54 6 l-47 -1 49 8 c58 10 93 41
102 89 10 52 41 115 71 142 15 14 23 18 20 9 -50 -132 -78 -243 -92 -365 -9
-75 -14 -140 -11 -142 8 -8 14 30 30 167 13 112 61 298 74 285 3 -2 -7 -48
-21 -102 -24 -88 -57 -283 -57 -333 0 -18 7 -20 88 -20 l87 0 20 46 c11 25 18
53 17 62 -2 9 2 33 8 53 10 28 17 35 31 32 11 -3 19 0 19 6 0 6 -7 11 -15 11
-18 0 -18 5 -2 51 7 20 18 34 25 31 15 -5 16 10 2 24 -7 7 -2 19 15 38 14 15
23 31 20 36 -3 5 0 20 6 32 7 13 13 32 14 43 7 76 7 123 1 133 -12 20 -33 112
-24 106 11 -7 10 3 -4 29 -7 13 -15 105 -20 232 -13 301 -18 375 -29 375 -5 0
-9 -37 -9 -82 0 -87 -5 -103 -30 -103 -8 0 -16 -9 -18 -19 -3 -15 0 -18 17
-13 19 5 21 1 21 -39 0 -52 -13 -56 -67 -23 -22 14 -53 22 -83 23 -33 1 -46 5
-43 14 5 12 -18 17 -30 6 -14 -14 9 -36 64 -60 32 -15 59 -30 59 -35 0 -4 -29
6 -65 22 -69 31 -155 49 -155 32 0 -6 13 -10 29 -11 59 -1 241 -87 241 -114 0
-6 -8 -20 -17 -31 -17 -19 -17 -20 5 -15 17 5 22 2 22 -12 0 -10 -6 -22 -12
-27 -21 -17 -74 -23 -87 -10 -8 8 -14 8 -23 -1 -18 -18 -67 -15 -133 8 -67 23
-65 23 -65 11 0 -5 14 -12 31 -16 17 -4 33 -15 36 -24 3 -11 27 -24 67 -36 51
-16 62 -22 58 -37 -5 -20 17 -25 34 -8 12 12 57 -17 49 -31 -15 -23 -84 -8
-181 41 -111 56 -104 53 -104 41 0 -5 52 -35 115 -66 68 -33 115 -62 115 -70
0 -8 -7 -15 -15 -15 -20 0 -85 32 -85 42 0 4 -7 8 -17 8 -9 0 -36 12 -60 26
-25 14 -47 23 -50 20 -9 -8 17 -36 33 -36 8 0 14 -5 14 -11 0 -5 6 -7 13 -3 7
4 8 3 4 -2 -5 -5 -16 -9 -24 -9 -34 0 -22 -25 31 -65 31 -24 56 -49 56 -56 0
-7 -8 -27 -18 -44 l-19 -30 -39 67 c-22 38 -46 80 -53 96 -8 15 -18 27 -23 27
-13 0 -9 -48 5 -57 17 -11 46 -49 30 -39 -8 4 -13 2 -13 -6 0 -7 -12 2 -26 19
-14 18 -33 33 -42 33 -14 0 -13 -3 4 -18 12 -9 27 -27 33 -39 15 -29 38 -169
35 -208 -1 -16 -3 -37 -3 -46 -1 -9 -22 -22 -53 -34 -29 -10 -59 -20 -66 -23
-7 -2 -2 12 12 32 14 21 28 58 32 83 8 54 -6 135 -24 141 -9 3 -10 -3 -2 -23
16 -42 11 -126 -10 -172 -10 -24 -24 -43 -30 -43 -5 0 -10 -7 -10 -15 0 -11
-12 -15 -44 -15 -25 0 -48 5 -51 10 -5 7 -11 8 -19 1 -17 -14 -177 -17 -202
-3 -29 16 -104 99 -104 116 0 8 -3 22 -6 31 -5 12 3 10 31 -9 57 -39 61 -31
10 17 -42 41 -45 47 -45 95 l0 51 53 -52 c55 -55 141 -104 198 -113 54 -9 116
13 157 54 42 42 61 103 63 209 2 53 4 60 16 47 21 -21 33 -17 33 10 0 26 -21
48 -41 44 -9 -2 -16 13 -20 47 -10 73 -10 203 0 223 5 9 16 33 25 52 9 19 34
64 55 99 36 60 43 65 98 83 32 11 89 26 127 33 37 8 75 20 82 26 8 6 14 30 14
54 0 27 6 47 16 56 10 8 14 22 11 38 -15 73 -34 65 193 73 200 7 373 28 413
50 17 9 24 7 40 -13 10 -13 45 -54 78 -91 59 -66 63 -85 14 -52 -14 9 -25 12
-25 6 0 -17 51 -45 62 -34 8 8 29 -5 69 -40 32 -29 75 -63 96 -77 27 -19 38
-33 38 -51 0 -20 5 -25 23 -23 28 3 29 -15 3 -82 -20 -52 -55 -247 -86 -477
-13 -92 -21 -125 -30 -121 -7 2 -16 0 -20 -6 -9 -16 -46 -13 -66 5 -25 23 -86
20 -120 -5 -15 -12 -30 -21 -33 -21 -2 0 -4 16 -3 35 2 25 7 35 19 35 9 0 21
7 26 16 11 20 52 10 84 -19 25 -24 118 -37 118 -17 0 5 -13 10 -30 10 -25 0
-30 4 -30 24 0 14 -4 28 -10 31 -6 4 -10 -7 -10 -26 0 -32 0 -32 -21 -13 -17
15 -18 20 -6 29 7 5 28 40 47 77 26 55 32 76 28 111 -6 47 -35 117 -49 117 -5
0 -2 -11 7 -25 8 -13 13 -28 10 -34 -3 -5 -1 -11 5 -13 5 -2 13 -23 16 -47 5
-39 4 -43 -11 -38 -13 5 -15 3 -7 -11 11 -20 -19 -78 -33 -65 -4 5 -7 1 -6 -7
1 -8 2 -20 1 -26 -2 -17 -50 -35 -76 -28 -17 4 -27 0 -37 -15 -7 -12 -23 -21
-36 -21 -19 0 -22 -4 -17 -20 4 -12 1 -28 -6 -36 -9 -11 -8 -18 7 -35 18 -21
18 -21 -4 -39 l-22 -19 21 -15 c17 -12 20 -21 16 -45 -4 -18 -2 -31 3 -31 6 0
10 6 10 13 1 6 10 1 21 -13 l21 -25 -23 -5 c-32 -8 -48 -59 -23 -77 22 -16 48
-17 75 -2 16 8 25 7 40 -7 20 -18 20 -18 0 -26 -27 -9 -37 -52 -21 -86 8 -15
12 -35 11 -45 -3 -23 25 -67 43 -67 8 0 17 8 19 17 4 17 5 17 6 1 2 -28 21
-21 21 7 0 14 -4 25 -10 25 -5 0 -10 8 -10 18 0 23 35 74 44 65 4 -4 4 0 0 10
-3 9 -10 15 -15 12 -9 -6 -3 62 11 116 6 21 19 40 32 46 13 6 43 20 68 33 87
43 210 82 241 75 22 -5 29 -3 29 9 0 10 -9 16 -24 16 -14 0 -27 4 -31 9 -3 6
-25 2 -53 -9 -26 -10 -63 -21 -83 -24 -19 -4 -57 -20 -83 -36 -53 -34 -80 -39
-72 -12 10 34 36 190 56 337 30 219 57 363 80 423 11 29 20 62 20 73 0 15 5
19 15 15 8 -3 15 -1 15 4 0 6 -6 10 -14 10 -45 0 -8 88 51 123 27 15 38 16 70
8 48 -14 130 -14 138 -1 9 15 42 12 49 -5 3 -8 2 -22 -1 -32 -4 -11 -3 -14 5
-9 7 4 12 17 12 30 0 18 19 4 105 -78 58 -56 105 -106 105 -112 0 -6 15 -22
34 -35 40 -29 237 -219 284 -275 17 -21 32 -49 32 -61 0 -13 5 -23 10 -23 16
0 12 -98 -11 -217 -21 -111 -21 -113 -46 -107 -22 6 -24 4 -21 -17 2 -15 9
-24 20 -23 18 2 18 -9 -3 -108 -9 -37 -7 -52 6 -78 9 -18 12 -29 6 -26 -6 4
-11 2 -11 -3 0 -6 6 -11 13 -11 22 0 47 -67 47 -125 l0 -55 345 0 345 0 0
1915 0 1915 -2025 0 -2025 0 0 -1915z m3045 1740 c139 -16 259 -40 284 -56 14
-9 14 -10 1 -6 -92 27 -354 57 -505 57 -100 -1 -139 -6 -235 -30 -63 -16 -126
-39 -140 -49 -14 -11 -45 -30 -69 -42 -69 -35 -183 -149 -225 -227 -21 -37
-48 -82 -61 -101 -14 -18 -32 -59 -41 -90 -9 -31 -25 -82 -35 -114 -21 -64
-24 -87 -9 -87 20 0 9 -22 -31 -59 -52 -47 -66 -98 -81 -283 -11 -128 -10
-138 7 -165 11 -15 18 -34 17 -40 -2 -7 1 -13 7 -13 10 0 26 -88 40 -233 12
-114 42 -190 120 -296 65 -89 64 -87 47 -120 -18 -33 -71 -81 -92 -81 -8 0
-14 -4 -14 -9 0 -28 -206 -58 -450 -67 -107 -3 -198 -11 -201 -16 -3 -5 -11
-3 -17 5 -17 21 64 35 228 41 74 3 162 10 195 15 33 6 86 13 118 16 31 4 63
12 70 19 7 8 23 16 34 20 30 10 83 72 83 98 0 11 -22 50 -49 87 -95 129 -116
188 -136 379 -9 80 -19 149 -23 152 -4 3 -18 27 -31 54 l-24 49 16 136 c22
179 38 233 82 268 30 24 34 32 29 58 -3 18 3 55 14 90 11 33 27 87 37 120 9
33 32 80 50 105 18 25 44 68 58 96 29 57 123 153 194 197 27 17 64 41 85 54
20 14 71 34 115 45 43 11 92 24 108 28 51 14 294 11 430 -5z m-665 -150 c0 -2
-10 -9 -22 -15 -22 -11 -22 -10 -4 4 21 17 26 19 26 11z m315 -95 c-32 -8 -32
-8 35 -15 8 -1 31 -11 50 -23 19 -12 48 -24 65 -28 16 -3 56 -17 88 -32 45
-19 56 -29 51 -41 -4 -9 -10 -37 -15 -63 -4 -25 -24 -80 -44 -121 -23 -47 -35
-86 -33 -103 l3 -29 99 -8 c111 -8 125 -3 110 40 -6 18 -24 35 -52 48 -23 12
-50 29 -59 38 -16 16 -16 21 -3 59 22 64 48 73 160 55 94 -15 120 -29 146 -79
31 -60 64 -190 64 -253 0 -39 -9 -44 -91 -43 -37 1 -65 -5 -80 -15 -21 -15
-24 -15 -40 -1 -17 15 -21 15 -52 -5 -19 -11 -42 -21 -51 -21 -22 0 -20 -17 4
-30 11 -6 20 -8 20 -4 0 3 6 2 13 -4 7 -6 25 -12 39 -14 15 -2 30 -7 34 -11 4
-4 14 -7 23 -7 9 0 29 -7 45 -15 15 -8 32 -13 36 -10 10 6 99 -92 110 -119 4
-11 4 -36 0 -56 -4 -19 -8 -79 -9 -133 -3 -136 -27 -199 -120 -306 -36 -41
-60 -61 -76 -61 -21 0 -22 5 -28 86 -5 81 -9 95 -61 198 -64 128 -68 152 -28
167 21 8 42 6 97 -10 87 -26 93 -26 122 1 33 31 30 75 -8 121 -36 44 -86 69
-199 98 -77 21 -83 21 -118 5 -45 -21 -72 -64 -72 -118 0 -52 19 -118 42 -142
25 -28 33 -57 17 -67 -18 -11 -39 -11 -39 0 0 8 -25 8 -135 -4 -24 -2 -37 5
-66 37 -32 37 -37 39 -56 27 -18 -11 -24 -10 -38 1 -24 20 -16 72 15 87 24 12
24 13 3 13 -12 0 -31 -12 -42 -26 -12 -15 -21 -24 -21 -20 0 3 -15 0 -33 -8
-42 -17 -147 -97 -147 -112 0 -17 -67 -77 -79 -70 -5 4 -18 -6 -28 -21 -14
-20 -17 -44 -16 -100 2 -73 -8 -123 -25 -123 -10 0 -28 59 -40 135 -8 49 -9
50 -40 47 -31 -2 -34 1 -63 65 -17 38 -36 90 -43 118 -12 47 -36 74 -36 41 0
-10 -6 -13 -15 -10 -9 4 -15 0 -15 -10 0 -20 -33 -21 -49 -3 -6 8 -13 29 -16
48 l-6 34 14 -31 c16 -34 34 -50 45 -39 4 3 -1 11 -11 16 -13 8 -17 23 -17 68
0 81 18 172 39 196 30 33 71 99 71 112 0 7 -4 13 -10 13 -5 0 -10 -6 -10 -14
0 -8 -18 -38 -40 -67 -23 -30 -43 -65 -46 -79 -10 -43 -12 -46 -13 -15 -1 52
29 159 51 182 24 25 60 30 76 10 6 -7 12 -42 14 -77 2 -51 6 -65 20 -68 38 -7
111 163 125 294 7 58 11 69 28 72 33 7 45 22 92 116 24 50 56 106 70 124 32
43 109 92 143 92 14 0 35 7 46 15 12 9 41 14 79 13 48 0 54 -2 30 -8z m-593
-239 c-9 -16 -18 -28 -20 -27 -5 6 21 56 29 56 5 0 0 -13 -9 -29z m-185 -608
c-3 -10 -5 -2 -5 17 0 19 2 27 5 18 2 -10 2 -26 0 -35z m1561 -184 c-3 -20 -5
-19 -9 9 -3 20 -2 29 4 23 5 -5 7 -19 5 -32z m-533 -109 c3 -6 -1 -7 -9 -4
-18 7 -21 14 -7 14 6 0 13 -4 16 -10z m543 -134 c-7 -27 -21 -54 -30 -60 -26
-16 -35 2 -10 20 23 16 41 68 44 129 l1 40 4 -40 c2 -22 -2 -62 -9 -89z m-853
24 c175 -32 212 -43 294 -84 45 -23 51 -30 45 -49 -9 -30 -9 -30 -41 -14 -84
43 -403 127 -482 127 -26 0 -31 4 -31 25 0 33 12 33 215 -5z m779 -65 c3 -8 1
-15 -4 -15 -6 0 -10 7 -10 15 0 8 2 15 4 15 2 0 6 -7 10 -15z m-1004 -142 c16
-38 31 -54 73 -78 94 -54 167 -78 237 -78 72 -1 107 13 167 66 29 25 34 27 25
10 -7 -12 -20 -27 -30 -32 -9 -6 -12 -11 -7 -11 6 0 4 -4 -3 -9 -7 -4 -14 -20
-16 -35 -2 -15 -15 -39 -29 -53 -22 -23 -36 -27 -91 -28 -37 -1 -66 2 -66 6 0
5 -7 6 -15 3 -9 -4 -15 0 -15 10 0 12 -12 16 -52 18 -29 0 -66 2 -81 3 -19 1
-26 -2 -23 -11 9 -24 -31 -26 -57 -2 -33 31 -45 58 -52 109 -3 24 -11 47 -18
51 -9 5 -7 8 4 8 11 0 17 9 17 25 0 14 -4 25 -9 25 -5 0 -3 11 3 25 6 14 13
25 14 25 2 0 13 -21 24 -47z m-959 2 l34 -14 -30 -1 c-38 0 -75 -23 -150 -92
-33 -30 -118 -93 -190 -140 -241 -159 -424 -341 -441 -438 -11 -62 -73 -303
-92 -361 -11 -30 -23 -75 -27 -100 -4 -24 -14 -69 -21 -99 -8 -30 -17 -119
-20 -197 -6 -159 -2 -173 63 -234 51 -49 73 -59 127 -59 38 0 44 -3 39 -16 -4
-12 -2 -15 8 -12 8 3 13 11 11 17 -1 7 24 11 80 10 63 -1 76 -3 53 -9 -155
-43 -244 -52 -307 -31 -61 20 -117 116 -137 232 -15 90 -14 151 4 196 8 21 19
75 25 120 6 45 24 121 41 170 31 93 69 234 94 354 16 76 35 113 90 179 62 74
228 212 360 299 72 47 158 111 193 143 59 54 123 97 148 98 7 0 27 -7 45 -15z
m1046 -57 c3 -7 -8 -3 -27 8 -18 10 -36 26 -38 33 -5 16 52 -21 65 -41z
m-1017 20 c0 -19 -12 -33 -35 -43 -30 -13 -39 -12 -52 5 -7 8 -13 10 -13 5 0
-6 5 -16 11 -22 9 -9 7 -16 -6 -30 -26 -26 -64 -43 -80 -36 -8 3 -15 0 -15 -6
0 -6 7 -11 17 -11 9 0 -3 -13 -28 -32 -50 -36 -59 -46 -59 -70 0 -13 8 -18 30
-18 17 0 30 5 30 12 0 7 7 2 16 -10 14 -21 21 -23 69 -17 34 5 55 3 59 -4 4
-6 12 -11 18 -11 7 0 7 4 -1 14 -9 11 3 16 66 29 114 24 176 26 181 6 4 -21
-34 -31 -49 -13 -6 8 -16 14 -22 14 -7 0 -7 -4 1 -12 18 -18 15 -24 -15 -24
-39 -1 -56 -7 -69 -23 -7 -9 -13 -10 -17 -4 -5 8 -20 8 -49 1 -24 -5 -86 -11
-138 -11 -79 -2 -94 -5 -91 -17 2 -8 5 -52 6 -97 2 -45 6 -87 10 -92 3 -6 1
-11 -4 -11 -6 0 -11 -5 -11 -11 0 -5 6 -7 13 -3 6 4 5 -1 -3 -10 -9 -9 -28
-17 -43 -18 -15 -1 -27 -5 -27 -9 0 -3 -24 -6 -52 -5 -52 1 -53 1 -53 32 0 25
-4 31 -17 29 -25 -5 -22 7 5 24 54 34 128 93 123 99 -3 3 -25 -8 -49 -25 -95
-69 -122 -83 -178 -99 -32 -9 -56 -20 -53 -25 2 -4 16 -4 30 1 14 6 29 8 34 5
5 -3 11 -1 15 5 3 5 11 10 18 10 6 0 0 -7 -13 -17 -41 -27 -90 -76 -90 -90 0
-27 -29 -11 -85 47 -57 60 -57 61 -39 82 59 66 226 203 339 277 72 47 168 119
215 159 62 54 86 70 88 58 2 -9 13 -16 25 -16 20 1 20 2 4 11 -9 6 -15 14 -12
20 9 14 45 11 45 -3z m22 -30 c-8 -8 -9 -4 -5 13 4 13 8 18 11 10 2 -7 -1 -18
-6 -23z m148 -158 c8 -5 12 -10 9 -10 -3 0 -71 -13 -150 -30 -168 -35 -194
-36 -203 -13 -4 10 -5 15 -2 12 3 -3 68 7 143 22 155 30 182 33 203 19z m520
-29 c0 -21 85 -131 166 -213 l88 -90 3 -64 c2 -69 -5 -77 -50 -51 -67 37 -257
210 -257 234 0 5 -16 25 -36 45 l-35 37 35 23 c19 13 43 38 53 56 17 30 33 42
33 23z m316 -342 c-26 -23 -31 -25 -34 -11 -2 9 -7 29 -11 43 l-9 26 42 -15
42 -16 -30 -27z m-1736 -49 c5 0 10 -5 10 -10 0 -15 44 -53 118 -102 57 -37
63 -45 57 -67 -3 -14 -7 -33 -8 -41 -2 -9 -6 -20 -9 -25 -4 -6 -6 -63 -6 -128
0 -64 -3 -120 -6 -125 -3 -5 -10 -46 -15 -91 -10 -89 -21 -111 -57 -111 -31 0
-31 4 5 209 38 223 32 321 -20 321 -30 0 -49 -56 -49 -148 0 -74 -23 -208 -55
-325 -21 -75 -42 -158 -49 -190 -6 -26 -7 -27 -34 -13 -111 58 -117 156 -32
451 41 138 80 295 80 318 0 10 10 41 22 69 19 44 23 48 29 29 5 -11 13 -21 19
-21z m553 -7 c-7 -2 -21 -2 -30 0 -10 3 -4 5 12 5 17 0 24 -2 18 -5z m1112
-74 c-10 -15 -25 -10 -19 6 4 8 10 12 15 9 5 -3 7 -10 4 -15z m-1361 -41 c-9
-18 -27 -47 -40 -65 -14 -18 -29 -42 -34 -55 -8 -18 -9 -15 -4 17 6 42 40 115
58 127 28 19 37 8 20 -24z m2096 -122 c36 -33 78 -70 93 -81 41 -29 136 -155
137 -180 0 -5 -9 6 -20 25 -12 19 -94 106 -183 194 -152 149 -170 177 -27 42z
m-2196 -176 c3 -60 2 -88 -4 -75 -8 19 -14 183 -6 174 2 -2 6 -47 10 -99z
m2426 -352 c-1 -26 -3 -30 -10 -16 -6 9 -7 23 -4 32 9 25 14 19 14 -16z
m-2204 -91 c3 -23 9 -57 14 -75 8 -30 5 -37 -17 -60 l-27 -27 -7 30 c-5 17
-15 68 -23 115 -13 77 -13 87 1 103 15 16 17 15 35 -14 10 -17 21 -50 24 -72z
m1027 64 c4 -4 -11 -20 -33 -36 l-41 -28 5 -66 c3 -36 7 -77 11 -91 4 -18 2
-16 -7 6 -7 17 -25 42 -40 56 -16 14 -28 32 -28 40 0 8 -5 19 -10 24 -12 12 6
64 22 64 5 0 7 4 3 10 -9 15 47 40 80 35 16 -3 33 -9 38 -14z m1143 -126 c-28
-103 -34 -91 -10 23 17 82 27 107 32 82 1 -9 -8 -56 -22 -105z m-1078 74 c2
-23 2 -23 -13 -5 -18 24 -20 39 -2 34 6 -3 13 -15 15 -29z m-41 5 c7 -20 -5
-42 -33 -61 -17 -11 -23 -11 -40 1 -18 14 -18 15 11 45 34 34 53 39 62 15z
m27 -77 c-3 -9 -15 -17 -27 -17 -19 0 -19 -1 -3 -19 24 -27 13 -92 -19 -107
-17 -8 -27 -8 -34 -1 -16 16 -13 37 4 37 21 0 19 18 -2 23 -10 3 -3 5 15 6 40
1 43 21 2 21 -18 0 -33 7 -39 19 -12 22 -5 31 23 31 12 0 32 9 46 20 27 20 45
14 34 -13z m1069 -127 c3 -11 1 -20 -4 -20 -5 0 -9 9 -9 20 0 11 2 20 4 20 2
0 6 -9 9 -20z m69 -171 c-8 -54 -10 -58 -11 -24 -1 22 -8 54 -17 70 -9 17 -22
46 -30 65 l-15 35 42 -41 41 -41 -10 -64z m-1188 92 c3 -5 -1 -12 -9 -15 -9
-3 -20 -16 -25 -28 -8 -21 -9 -21 -9 8 -1 17 2 34 6 37 9 10 31 9 37 -2z m4
-43 c-2 -6 -10 -14 -16 -16 -7 -2 -10 2 -6 12 7 18 28 22 22 4z"/>
<path d="M2411 2888 c-47 -8 -61 -15 -61 -30 0 -6 16 -8 43 -5 23 4 73 1 112
-6 61 -10 71 -15 83 -40 10 -21 11 -31 2 -42 -12 -14 -28 -13 -119 4 -64 13
-81 14 -64 3 7 -4 -21 -15 -68 -27 -43 -10 -79 -22 -79 -26 0 -5 53 -7 117 -6
l118 2 19 -36 c17 -30 28 -38 69 -48 60 -14 107 -14 107 -1 0 5 4 9 9 7 5 -1
26 22 46 52 l38 55 -36 33 c-23 20 -31 33 -22 33 12 0 13 4 5 19 -15 29 -12
40 10 34 11 -3 20 0 20 6 0 18 -50 24 -90 11 -21 -7 -47 -9 -57 -5 -30 12
-157 21 -202 13z"/>
<path d="M1994 2685 c-29 -20 -39 -86 -19 -125 18 -34 22 -35 49 -15 20 15 20
15 -12 76 -1 4 4 14 13 23 9 9 12 16 6 16 -6 0 -11 5 -11 11 0 6 9 8 20 4 24
-7 27 10 4 19 -22 9 -27 8 -50 -9z"/>
<path d="M2445 1740 c3 -5 8 -10 11 -10 2 0 4 5 4 10 0 6 -5 10 -11 10 -5 0
-7 -4 -4 -10z"/>
<path d="M1556 1672 c-3 -6 -1 -14 5 -17 14 -9 20 -2 10 14 -6 8 -11 9 -15 3z"/>
<path d="M1088 1577 c-37 -31 -60 -77 -38 -77 6 0 10 6 10 14 0 8 19 31 42 50
23 20 35 36 27 36 -8 0 -26 -10 -41 -23z"/>
<path d="M1475 1380 c3 -5 8 -10 11 -10 2 0 4 5 4 10 0 6 -5 10 -11 10 -5 0
-7 -4 -4 -10z"/>
<path d="M2750 1352 c0 -14 -106 -73 -175 -96 -75 -27 -97 -42 -45 -33 19 4
74 26 123 50 90 45 112 41 61 -10 -14 -14 -23 -28 -20 -31 11 -10 43 28 55 66
7 20 15 43 17 50 3 6 1 12 -5 12 -6 0 -11 -4 -11 -8z"/>
<path d="M1930 1330 c0 -5 7 -10 15 -10 8 0 15 5 15 10 0 6 -7 10 -15 10 -8 0
-15 -4 -15 -10z"/>
<path d="M2105 1300 c3 -5 8 -10 11 -10 2 0 4 5 4 10 0 6 -5 10 -11 10 -5 0
-7 -4 -4 -10z"/>
<path d="M2781 1274 c14 -16 35 -45 47 -64 31 -53 123 -123 122 -92 -1 4 -18
19 -39 33 -21 15 -57 53 -82 84 -24 32 -51 61 -59 63 -9 3 -4 -7 11 -24z"/>
<path d="M2027 1253 c-17 -16 -6 -62 21 -85 18 -15 26 -31 24 -46 -3 -17 6
-33 29 -53 35 -31 46 -34 69 -19 12 8 9 10 -12 10 -17 0 -37 11 -52 27 -32 35
-27 39 15 14 38 -23 49 -26 49 -11 0 6 -6 10 -14 10 -15 0 -126 103 -126 116
0 4 7 16 17 26 14 15 14 18 1 18 -8 0 -18 -3 -21 -7z"/>
<path d="M1530 1236 c0 -8 5 -18 10 -21 6 -3 10 1 10 9 0 8 -4 18 -10 21 -5 3
-10 -1 -10 -9z"/>
<path d="M2066 1224 c-8 -21 -9 -18 17 -46 41 -44 73 -60 107 -53 16 4 30 13
30 21 0 8 9 14 20 14 12 0 20 7 20 16 0 9 -6 14 -12 11 -7 -2 -29 4 -48 15
-45 23 -71 23 -77 -2 -6 -24 -16 -25 -33 -5 -10 12 -10 18 0 30 10 12 10 15
-3 15 -8 0 -18 -7 -21 -16z m89 -24 c3 -5 1 -10 -4 -10 -6 0 -11 5 -11 10 0 6
2 10 4 10 3 0 8 -4 11 -10z m45 -21 c0 -6 -4 -7 -10 -4 -5 3 -10 11 -10 16 0
6 5 7 10 4 6 -3 10 -11 10 -16z m-16 -15 c9 -3 16 -10 16 -16 0 -14 -63 -5
-68 10 -4 13 25 16 52 6z"/>
<path d="M2880 1191 c0 -6 5 -13 10 -16 6 -3 10 1 10 9 0 9 -4 16 -10 16 -5 0
-10 -4 -10 -9z"/>
<path d="M2680 1176 c-47 -21 -54 -27 -39 -37 20 -13 29 -11 29 6 0 8 5 15 11
15 5 0 7 -4 4 -10 -3 -6 1 -7 9 -4 9 3 15 9 14 12 -2 20 5 21 32 7 17 -9 28
-20 25 -24 -2 -5 23 -23 56 -40 61 -31 61 -31 38 -6 -34 36 -99 81 -129 87
-14 3 -36 1 -50 -6z"/>
<path d="M2930 1179 c0 -5 5 -7 10 -4 6 3 10 8 10 11 0 2 -4 4 -10 4 -5 0 -10
-5 -10 -11z"/>
<path d="M2735 1140 c4 -6 11 -8 16 -5 14 9 11 15 -7 15 -8 0 -12 -5 -9 -10z"/>
<path d="M2613 1120 c2 -23 10 -25 26 -6 9 11 8 15 -5 20 -22 9 -23 8 -21 -14z"/>
<path d="M1896 1095 c-6 -17 12 -31 24 -19 5 5 2 14 -5 21 -10 10 -14 9 -19
-2z"/>
<path d="M3040 1085 c0 -9 6 -12 15 -9 8 4 15 7 15 9 0 2 -7 5 -15 9 -9 3 -15
0 -15 -9z"/>
<path d="M2534 1074 c-18 -14 -18 -15 6 -8 31 8 50 24 29 24 -8 0 -24 -7 -35
-16z"/>
<path d="M3076 1055 c4 -8 8 -15 10 -15 2 0 4 7 4 15 0 8 -4 15 -10 15 -5 0
-7 -7 -4 -15z"/>
<path d="M2550 1040 c0 -5 14 -10 31 -10 17 0 28 4 24 10 -3 6 -17 10 -31 10
-13 0 -24 -4 -24 -10z"/>
<path d="M2800 1036 c0 -9 5 -16 10 -16 6 0 10 4 10 9 0 6 -4 13 -10 16 -5 3
-10 -1 -10 -9z"/>
<path d="M1957 1014 c-13 -13 -7 -24 14 -24 11 0 19 5 17 12 -5 14 -22 21 -31
12z"/>
<path d="M2578 1002 c7 -5 21 -32 32 -61 19 -53 19 -53 -1 -36 -10 10 -22 15
-25 12 -10 -10 5 -70 26 -105 27 -44 45 -32 25 15 -9 22 -12 40 -6 46 28 28
43 -231 16 -283 -10 -19 -11 -30 -5 -30 6 0 18 16 26 35 19 46 9 222 -15 280
-10 22 -24 61 -31 88 -11 36 -19 47 -35 47 -14 0 -16 -3 -7 -8z"/>
<path d="M1858 975 c14 -28 40 -49 92 -75 25 -13 72 -47 104 -76 33 -30 63
-54 68 -54 4 0 -4 23 -18 50 -14 28 -31 49 -38 48 -17 -4 -156 70 -190 101
-23 21 -27 22 -18 6z"/>
<path d="M2325 969 c-9 -26 10 -48 26 -32 12 12 3 53 -11 53 -5 0 -12 -9 -15
-21z"/>
<path d="M2150 965 c0 -8 5 -15 10 -15 6 0 10 7 10 15 0 8 -4 15 -10 15 -5 0
-10 -7 -10 -15z"/>
<path d="M2644 969 c-3 -5 3 -9 14 -9 25 0 66 -45 91 -100 20 -45 30 -34 12
13 -22 57 -101 122 -117 96z"/>
<path d="M2055 950 c-7 -12 2 -30 16 -30 5 0 9 9 9 20 0 21 -15 27 -25 10z"/>
<path d="M2546 938 c-20 -32 -29 -83 -20 -110 6 -18 10 -10 15 36 4 38 13 64
23 72 11 7 13 15 7 18 -6 4 -17 -4 -25 -16z"/>
<path d="M2884 928 c0 -12 6 -23 13 -25 7 -3 9 3 6 17 -8 28 -20 34 -19 8z"/>
<path d="M2674 868 c14 -37 31 -64 40 -66 20 -4 20 17 0 68 -14 35 -38 60 -58
60 -3 0 5 -28 18 -62z"/>
<path d="M3060 917 c0 -7 13 -33 28 -58 16 -24 32 -53 36 -64 l8 -20 8 20 c15
37 10 55 -26 95 -38 41 -54 50 -54 27z"/>
<path d="M1305 900 c-3 -5 1 -10 9 -10 9 0 16 5 16 10 0 6 -4 10 -9 10 -6 0
-13 -4 -16 -10z"/>
<path d="M2400 899 c0 -12 25 -22 41 -17 6 2 0 9 -15 16 -16 7 -26 8 -26 1z"/>
<path d="M3230 855 c0 -9 5 -15 11 -13 6 2 11 8 11 13 0 5 -5 11 -11 13 -6 2
-11 -4 -11 -13z"/>
<path d="M1899 743 c14 -27 9 -29 -13 -7 -15 14 -16 13 -15 -13 0 -15 3 -22 6
-16 7 18 43 -3 44 -25 0 -14 2 -14 8 2 5 14 10 16 15 8 4 -7 11 -10 16 -7 5 3
16 -7 25 -22 15 -27 15 -27 9 -3 -7 27 -43 70 -58 70 -5 0 -18 8 -29 18 -19
16 -20 16 -8 -5z"/>
<path d="M3017 733 c-19 -36 -22 -69 -7 -78 6 -4 10 8 10 27 0 19 5 39 11 45
6 6 9 17 7 25 -3 8 -11 1 -21 -19z"/>
<path d="M2724 726 c-13 -33 1 -51 35 -49 48 2 59 18 30 42 -28 24 -57 27 -65
7z m54 -31 c-3 -3 -9 2 -12 12 -6 14 -5 15 5 6 7 -7 10 -15 7 -18z"/>
<path d="M2551 715 l-24 -13 42 -26 c22 -14 49 -26 58 -26 11 1 3 9 -20 21
-41 21 -44 42 -9 47 17 3 20 0 15 -14 -4 -12 -3 -15 5 -10 7 4 12 14 12 22 0
18 -46 17 -79 -1z"/>
<path d="M3162 686 c-7 -19 -57 -101 -111 -183 -125 -191 -162 -254 -194 -333
-28 -71 -49 -170 -36 -170 4 0 11 17 15 38 7 35 8 35 15 12 4 -14 7 -19 8 -12
1 6 5 12 10 12 4 0 6 -11 3 -25 -4 -24 -2 -25 47 -25 54 0 65 12 29 31 -22 12
-22 12 -3 19 11 4 41 10 67 14 25 4 64 16 85 27 l38 20 -37 -5 c-42 -5 -68 12
-68 44 0 22 -16 35 -25 20 -3 -5 -15 -10 -25 -10 -10 0 -25 -6 -32 -13 -38
-36 -81 -67 -94 -67 -11 0 -8 15 12 68 31 82 67 147 154 278 125 185 184 294
161 294 -4 0 -12 -15 -19 -34z m-242 -590 c0 -2 -8 -10 -17 -17 -16 -13 -17
-12 -4 4 13 16 21 21 21 13z"/>
<path d="M3040 690 c-6 -11 -7 -20 -3 -20 5 0 14 9 21 20 7 11 8 20 2 20 -5 0
-14 -9 -20 -20z"/>
<path d="M3336 683 c-12 -12 -6 -43 9 -43 8 0 15 9 15 19 0 21 -13 34 -24 24z"/>
<path d="M1853 625 c-9 -10 -8 -14 8 -18 11 -3 19 -14 19 -26 0 -19 -3 -20
-20 -11 -28 15 -26 -5 2 -24 31 -22 38 -20 38 8 0 26 19 47 21 24 1 -7 3 -20
4 -28 1 -8 3 -23 4 -32 0 -10 6 -18 12 -18 6 0 8 10 5 23 -3 12 -3 16 0 9 3
-6 11 -9 17 -5 7 3 9 3 5 -2 -4 -4 -1 -14 7 -22 11 -11 12 -19 3 -38 -6 -14
-8 -28 -5 -32 9 -8 14 -2 19 22 1 11 7 23 11 26 12 9 -43 90 -56 82 -5 -3 -7
-1 -3 5 3 6 2 13 -2 16 -5 3 -7 18 -5 33 4 24 2 26 -9 13 -15 -17 -38 -24 -38
-11 0 15 -25 19 -37 6z"/>
<path d="M2263 613 c-7 -2 -13 -13 -13 -24 0 -14 7 -19 25 -19 17 0 25 5 25
18 0 14 -2 15 -10 2 -5 -8 -13 -11 -17 -6 -4 4 1 14 11 22 20 14 6 19 -21 7z"/>
<path d="M2900 584 c0 -19 4 -33 8 -30 8 5 4 66 -4 66 -2 0 -4 -16 -4 -36z"/>
<path d="M2379 584 c12 -15 21 -35 21 -45 0 -10 5 -21 10 -24 6 -3 10 0 10 8
0 8 9 22 20 32 11 10 20 23 20 28 0 6 -11 0 -25 -13 -19 -18 -25 -20 -25 -8 0
15 -30 48 -44 48 -4 0 2 -12 13 -26z"/>
<path d="M3292 578 c2 -13 8 -23 13 -23 6 0 11 10 13 23 2 15 -2 22 -13 22
-11 0 -15 -7 -13 -22z"/>
<path d="M2563 551 c-2 -9 -5 -19 -6 -23 -3 -11 65 -58 84 -58 24 0 13 37 -17
57 -13 8 -24 21 -24 27 0 18 -32 15 -37 -3z m72 -51 c3 -6 0 -10 -7 -10 -15 0
-38 19 -38 32 0 10 36 -8 45 -22z"/>
<path d="M2650 541 c0 -5 7 -11 15 -15 9 -3 20 -16 25 -28 7 -19 9 -19 9 -5 1
26 -17 57 -34 57 -8 0 -15 -4 -15 -9z"/>
<path d="M2367 509 c9 -19 13 -44 10 -65 -6 -38 2 -44 20 -15 7 11 20 21 30
24 10 2 6 3 -9 2 -23 -1 -28 2 -28 22 0 28 -17 63 -30 63 -4 0 -2 -14 7 -31z"/>
<path d="M1812 522 c-9 -6 -6 -14 13 -30 29 -25 40 -15 17 16 -11 13 -22 19
-30 14z"/>
<path d="M3093 493 c-3 -10 -16 -29 -28 -43 -23 -26 -41 -90 -25 -90 9 0 53
87 65 128 7 26 -3 30 -12 5z"/>
<path d="M3220 495 c0 -8 7 -15 15 -15 8 0 15 7 15 15 0 8 -7 15 -15 15 -8 0
-15 -7 -15 -15z"/>
<path d="M1874 471 c3 -18 6 -37 6 -42 0 -5 8 -9 18 -9 13 0 14 -2 3 -9 -8 -5
-9 -11 -3 -15 6 -3 13 -3 16 2 8 13 -5 53 -15 46 -5 -3 -9 3 -9 13 0 10 -5 25
-11 33 -8 11 -9 7 -5 -19z"/>
<path d="M1801 454 c0 -11 3 -14 6 -6 3 7 2 16 -1 19 -3 4 -6 -2 -5 -13z"/>
<path d="M937 395 c-25 -53 -57 -68 -153 -73 -47 -3 -84 -9 -84 -15 0 -15 153
-2 190 16 16 9 30 11 30 6 0 -5 5 -9 10 -9 6 0 10 6 9 13 -2 6 3 30 9 51 15
51 10 55 -11 11z"/>
<path d="M1785 400 c-4 -6 -11 -8 -16 -5 -13 9 -11 -9 5 -41 8 -15 13 -31 10
-36 -3 -5 0 -7 8 -6 7 2 12 -3 10 -11 -1 -7 0 -22 4 -34 6 -19 7 -18 19 9 6
16 9 31 5 34 -9 7 -24 43 -21 53 1 5 -3 6 -8 3 -5 -4 -12 -2 -16 4 -3 5 -2 10
3 10 5 0 9 7 9 15 0 18 -3 19 -12 5z"/>
<path d="M1856 396 c3 -9 11 -16 16 -16 13 0 5 23 -10 28 -7 2 -10 -2 -6 -12z"/>
<path d="M975 380 c-8 -13 -1 -24 14 -19 6 3 7 10 2 18 -6 10 -10 10 -16 1z"/>
<path d="M2457 354 c-20 -21 -37 -44 -37 -51 0 -7 -5 -13 -11 -13 -16 0 -6
-53 14 -68 9 -7 26 -30 37 -50 l19 -37 1 36 c0 20 3 39 8 43 4 4 7 11 7 14 1
4 7 30 14 59 10 43 10 56 -1 78 l-14 26 -37 -37z"/>
<path d="M1561 349 c-21 -34 -30 -129 -13 -129 5 0 8 22 8 49 0 30 7 59 18 76
10 15 15 29 12 32 -3 3 -14 -10 -25 -28z"/>
<path d="M1893 350 c-1 -18 2 -28 7 -25 12 7 14 55 3 55 -5 0 -9 -14 -10 -30z"/>
<path d="M3060 365 c0 -8 5 -15 10 -15 6 0 10 7 10 15 0 8 -4 15 -10 15 -5 0
-10 -7 -10 -15z"/>
<path d="M1702 348 c-7 -7 -12 -20 -12 -29 0 -23 47 -123 53 -112 12 22 15 82
4 112 -13 39 -27 47 -45 29z"/>
<path d="M580 339 c0 -5 5 -7 10 -4 6 3 10 8 10 11 0 2 -4 4 -10 4 -5 0 -10
-5 -10 -11z"/>
<path d="M3000 336 c0 -9 7 -16 16 -16 17 0 14 22 -4 28 -7 2 -12 -3 -12 -12z"/>
<path d="M1671 268 c-1 -19 -5 -26 -15 -22 -23 9 -26 -23 -4 -48 17 -19 19
-32 15 -79 -3 -31 -12 -70 -21 -87 -9 -18 -12 -32 -7 -32 35 0 67 210 43 270
l-11 25 0 -27z"/>
<path d="M2575 235 c-11 -13 -28 -26 -38 -29 -17 -4 -17 -6 -2 -29 8 -13 13
-32 9 -41 -8 -20 36 -116 54 -116 16 0 15 20 -3 44 -21 27 -21 149 0 166 16
13 20 30 8 30 -5 -1 -17 -12 -28 -25z"/>
<path d="M2047 152 c-3 -26 -9 -55 -13 -66 -6 -16 -4 -17 13 -8 14 8 23 8 31
0 15 -15 26 -4 18 18 -4 10 -12 14 -22 10 -14 -5 -15 -4 -5 8 8 9 10 27 6 45
-10 48 -22 45 -28 -7z"/>
<path d="M1720 140 c0 -11 14 -11 50 0 22 7 21 8 -12 9 -21 1 -38 -3 -38 -9z"/>
<path d="M1577 113 c-11 -10 13 -33 34 -33 23 0 25 25 3 34 -20 8 -29 8 -37
-1z"/>
<path d="M1945 96 c-8 -13 -13 -30 -10 -39 4 -8 2 -18 -4 -22 -6 -3 -11 -13
-11 -21 0 -10 12 -14 45 -14 47 0 56 9 30 30 -9 7 -15 29 -15 51 0 44 -12 50
-35 15z"/>
<path d="M2137 92 c-12 -17 1 -68 21 -84 14 -11 15 -11 8 7 -5 11 -12 36 -15
55 -4 23 -9 31 -14 22z"/>
<path d="M1455 50 c-8 -13 4 -32 16 -25 12 8 12 35 0 35 -6 0 -13 -4 -16 -10z"/>
<path d="M2260 21 c0 -12 5 -21 10 -21 6 0 10 6 10 14 0 8 -4 18 -10 21 -5 3
-10 -3 -10 -14z"/>
<path d="M2347 33 c-4 -3 -17 -7 -29 -8 -12 -1 -24 -7 -26 -13 -4 -14 44 -10
74 6 12 6 24 8 28 5 3 -3 6 -1 6 5 0 13 -42 17 -53 5z"/>
<path d="M3326 23 c-11 -11 -6 -23 9 -23 8 0 15 4 15 9 0 13 -16 22 -24 14z"/>
<path d="M3220 10 c0 -5 5 -10 11 -10 5 0 7 5 4 10 -3 6 -8 10 -11 10 -2 0 -4
-4 -4 -10z"/>
</g>
</svg>
